<svg xmlns="http://www.w3.org/2000/svg" viewBox="0 0 800 800">
<path fill="#000" d="M400 66.8c183.6 0 333.2 149.6 333.2 333.2 0 82.6-30.8 158.2-81.2 216.2l-26-21.8C671.4 542.2 699.2 473.8 699.2 400c0-165.2-134-299.2-299.2-299.2S100.8 234.8 100.8 400c0 73.8 27.8 142.2 74.2 194.4l-26 21.8C98.2 558.2 66.8 482.6 66.8 400 66.8 216.4 216.4 66.8 400 66.8zm283.4 286.6-13.6-10.8c-24.8-19.8-65.8-52.6-126.8-52.6H256.4c-61 0-101.4 32.8-126.2 52.6l-13.2 10.8-21.6 17.6 28 22.4 2.2-1.8c22.6-18 57.2-47.6 111-47.6h126.8c53.8 0 88.4 29.6 111 47.6l2.2 1.8 28-22.4-21.2-17.6zM95.4 466.6l21.6-17.6-28-22.4-2.2 1.8C64.2 447 29.6 476.6 29.6 400c0-10.4.6-20.6 1.6-30.6L1.8 365C.6 376.6 0 388.2 0 400c0 98.6 35.8 188.8 95.4 259.4l26-21.8c-27.4-32.4-48.4-70.2-61.2-111.4l29.4-9.6c8.4 27.2 22.2 52.2 40.4 73.8l26-21.8c-52-61.6-83.6-141.2-83.6-228.6 0-25.2 3.2-49.6 9-73l-33-8.8C43.2 384.8 40 400 40 400c0 204 161.4 370 360 370s360-166 360-370c0-10.4-3.2-25.6-7.8-40.6l-33 8.8c5.8 23.4 9 47.8 9 73 0 87.4-31.6 167-83.6 228.6l26 21.8c18.2-21.6 32-46.6 40.4-73.8l29.4 9.6c-12.8 41.2-33.8 79-61.2 111.4l26 21.8c59.6-70.6 95.4-160.8 95.4-259.4 0-11.8-.6-23.4-1.8-35l-29.4 4.4c1 10 1.6 20.2 1.6 30.6 0 77.2-35.2 147.6-90 178.6l28 22.4 21.6-17.6z"/>
<path fill="#000" d="M185.8 436.4h15l23.2-37.4h.4v37.4h11.8v-56h-17l-22.4 36.2h-.4v-36.2h-11.8v56h1.2zm64.4 0h13v-56h-13v56zm56.8-13.6c4.6 2.4 10.6 4.2 16.4 4.2 8.4 0 12.6-3.8 12.6-8.8 0-16.2-49.6-5.8-49.6-33.6 0-11.8 10.2-19.8 28.2-19.8 7.4 0 13.8 1.6 17.8 3.6l-2.8 9.6c-4.4-2.2-10-3.6-15.4-3.6-7.6 0-11.8 3.8-11.8 8.2 0 16.2 49.6 5.2 49.6 33.8 0 12.2-10.6 20.4-30 20.4-8 0-16.2-2.2-20.8-4.8l5.8-9.2zm88 0c4.6 2.4 10.6 4.2 16.4 4.2 8.4 0 12.6-3.8 12.6-8.8 0-16.2-49.6-5.8-49.6-33.6 0-11.8 10.2-19.8 28.2-19.8 7.4 0 13.8 1.6 17.8 3.6l-2.8 9.6c-4.4-2.2-10-3.6-15.4-3.6-7.6 0-11.8 3.8-11.8 8.2 0 16.2 49.6 5.2 49.6 33.8 0 12.2-10.6 20.4-30 20.4-8 0-16.2-2.2-20.8-4.8l5.8-9.2zm64.2 3.6h25l3.2 10h14.2l-23-56h-15l-23 56h13.8l3.2-10h1.6zm4.2-12 8.2-25h.4l8.2 25h-16.8zm63.4 22h14.2l-24.8-39v-17h-11.8v56h12v-34.6h.4l22.6 34.6h7.4z"/>
</svg>
