<svg xmlns="http://www.w3.org/2000/svg" viewBox="0 0 100 100">
<!-- Emerald Green Wordmark Style + Winged Arrow -->
<path fill="#25d366" d="M44.5 0.3c-10.5 1.3-19.7 5.4-27 11.9 20.6-5 44.2 2.3 54.3 16.8 0.1-0.1 0.5-0.7 1-1.3 9.9-12.2 26.9-19.4 42.8-19 3.2 0.1 4.7 0.1 6.1 0-33.1-0.9-53.9 34-39 63.8-0.7 1.4-3.3 5.6-3.6 5.8 0 0.1-0.3 0.5-0.7 1-2 3.8-5.2 6.1-8.3 8.3-1.3 1-2 1.4-3.1 2.2-25.2 16.3-58.9 3.9-67.6-24.7-5-18.7-2.6-38.2 6.8-54.8 0-0.1 0-0.2 0-0.3 2.1-4.7 5.1-8.9 9-12.7 0.2-0.2 0.9-0.8 1.5-1.3 7.3-6.5 16.6-10.6 27.1-12 1.8-0.2 2.9-0.3 6.3-0.2l0 0z m11.1 2.1c-16.3-2-33.2 5.2-43.2 18.5-0.5 0.6-0.9 1.2-1 1.3-9.4 12.2-11.4 31.7-5.9 46.6 9.9 22.4 34.8 33.7 58 26.5 14.6-4.6 26.6-16.6 31.1-31.1 3.2-10.3 2.4-21.6-2.2-31.5-2.1-4.7-5.3-7.9-8.1-10.1-1.4-1-2.9-2.2-3.3-2.5-10.8-9-26.6-12.8-40.2-12.2l-0.5 0c-4.4 0-4.4 0-4.6 0z"/>
<!-- Inner Eye/Arrow Detail -->
<circle cx="53" cy="27" r="5" fill="#fff"/>
</svg>
